HIERARCHY
ROOT Hips
{
	OFFSET 0.00 0.00 0.00
	CHANNELS 6 Xposition Yposition Zposition Xrotation Yrotation Zrotation
	JOINT Spine
	{
		OFFSET 0.00000 7.53995 0.00000
		CHANNELS 3 Xrotation Yrotation Zrotation
		JOINT Head
		{
			OFFSET 0.00000 15.09381 0.00000
			CHANNELS 3 Xrotation Yrotation Zrotation
			End Site
			{
				OFFSET 0.00000 4.52755 0.00000
			}
		}
		JOINT LeftShoulder
		{
			OFFSET 0.00000 9.73893 0.00000
			CHANNELS 3 Xrotation Yrotation Zrotation
			JOINT LeftArm
			{
				OFFSET 7.08401 0.00000 0.00000
				CHANNELS 3 Xrotation Yrotation Zrotation
				JOINT LeftForeArm
				{
					OFFSET 10.25932 0.00000 0.00000
					CHANNELS 3 Yrotation Zrotation Xrotation
					JOINT LeftHand
					{
						OFFSET 9.89698 0.00000 0.00000
						CHANNELS 3 Xrotation Yrotation Zrotation
						JOINT LeftHandThumb1
						{
							OFFSET 0.00000 0.00000 0.00000
							CHANNELS 3 Xrotation Zrotation Yrotation
							End Site
							{
								OFFSET 0.00000 0.00000 3.93700
							}
						}
						End Site
						{
							OFFSET 3.93700 0.00000 0.00000
						}
					}
				}
			}
		}
		JOINT RightShoulder
		{
			OFFSET 0.00000 9.73893 0.00000
			CHANNELS 3 Xrotation Yrotation Zrotation
			JOINT RightArm
			{
				OFFSET -7.08401 0.00000 0.00000
				CHANNELS 3 Xrotation Yrotation Zrotation
				JOINT RightForeArm
				{
					OFFSET -10.25932 0.00000 0.00000
					CHANNELS 3 Yrotation Zrotation Xrotation
					JOINT RightHand
					{
						OFFSET -9.89698 0.00000 0.00000
						CHANNELS 3 Xrotation Yrotation Zrotation
						JOINT RightHandThumb1
						{
							OFFSET 0.00000 0.00000 0.00000
							CHANNELS 3 Xrotation Zrotation Yrotation
							End Site
							{
								OFFSET 0.00000 0.00000 3.93700
							}
						}
						End Site
						{
							OFFSET -3.93700 0.00000 0.00000
						}
					}
				}
			}
		}
	}
	JOINT LeftUpLeg
	{
		OFFSET 3.34548 0.00000 0.00000
		CHANNELS 3 Xrotation Yrotation Zrotation
		JOINT LeftLeg
		{
			OFFSET 0.00000 -19.11473 0.00000
			CHANNELS 3 Xrotation Yrotation Zrotation
			JOINT LeftFoot
			{
				OFFSET 0.00000 -16.04560 0.00000
				CHANNELS 3 Xrotation Yrotation Zrotation
				JOINT LeftToeBase
				{
					OFFSET 0.00000 -1.43467 5.35428
					CHANNELS 3 Xrotation Yrotation Zrotation
					End Site
					{
						OFFSET 0.00000 0.00000 2.95275
					}
				}
			}
		}
	}
	JOINT RightUpLeg
	{
		OFFSET -3.34548 0.00000 0.00000
		CHANNELS 3 Xrotation Yrotation Zrotation
		JOINT RightLeg
		{
			OFFSET 0.00000 -19.11473 0.00000
			CHANNELS 3 Xrotation Yrotation Zrotation
			JOINT RightFoot
			{
				OFFSET 0.00000 -16.04560 0.00000
				CHANNELS 3 Xrotation Yrotation Zrotation
				JOINT RightToeBase
				{
					OFFSET 0.00000 -1.43467 5.35428
					CHANNELS 3 Xrotation Yrotation Zrotation
					End Site
					{
						OFFSET 0.00000 0.00000 2.95275
					}
				}
			}
		}
	}
}
MOTION
Frames:	22
Frame Time: 0.008333
-0.9974 36.9645 1.9176 7.4095 -1.4008 0.0874 -5.3786 -7.6752 0.6972 3.8095 1.6824 -1.7929 3.1782 10.7192 16.4830 -30.7573 17.2556 -25.4723 -16.5047 -0.0000 -174.3045 0.2626 -6.3834 2.3607 32.8623 0.0000 24.3270 -12.2307 -5.1934 -17.0387 -12.3134 -5.7499 21.3714 12.2806 -0.0000 34.7714 0.6011 -22.3400 1.5812 33.1476 -0.0000 -26.2537 -6.5583 8.4889 3.6353 10.8897 -0.0000 -0.0000 -14.4622 5.8495 -5.0599 3.4150 -0.0000 -0.0000 -4.7542 -5.1290 -1.0974 6.1083 -0.0000 -0.0000 -14.8594 -10.9184 14.5529 14.8133 -0.0000 -0.0000
-0.9950 36.9643 1.9152 7.4265 -1.3775 0.0771 -5.4004 -7.6796 0.7383 3.7816 1.6357 -1.7832 3.1532 10.7076 16.5010 -30.7385 17.2639 -25.4851 -16.5545 -0.0000 -174.3321 0.2671 -6.3611 2.4096 32.8623 0.0000 24.3270 -12.2676 -5.1933 -17.0325 -12.3025 -5.7128 21.3362 12.2925 -0.0000 34.7779 0.5706 -22.3302 1.5016 33.1476 -0.0000 -26.2537 -6.5821 8.4983 3.6470 10.8815 -0.0000 -0.0000 -14.4556 5.8087 -5.1044 3.4001 -0.0000 -0.0000 -4.7836 -5.1126 -1.0874 6.1332 -0.0000 -0.0000 -14.8622 -10.9630 14.4831 14.7797 -0.0000 -0.0000
-0.9931 36.9645 1.9138 7.4267 -1.3742 0.0727 -5.4101 -7.6676 0.7731 3.7796 1.5862 -1.7843 3.1530 10.6999 16.4948 -30.7656 17.2539 -25.4742 -16.5712 0.0000 -174.3565 0.2760 -6.3686 2.4865 32.8623 0.0000 24.3270 -12.2393 -5.2101 -17.0394 -12.3674 -5.6781 21.3410 12.3207 0.0000 34.8124 0.5640 -22.4004 1.4796 33.1476 -0.0000 -26.2537 -6.5860 8.5262 3.6541 10.8801 -0.0000 -0.0000 -14.4519 5.7664 -5.1120 3.3847 -0.0000 -0.0000 -4.8004 -5.1025 -1.0821 6.1644 -0.0000 -0.0000 -14.8736 -10.9788 14.4560 14.7741 -0.0000 -0.0000
-0.9917 36.9640 1.9125 7.4338 -1.3584 0.0646 -5.4207 -7.6816 0.8091 3.7515 1.5989 -1.7791 3.1623 10.7192 16.4882 -30.7820 17.2207 -25.4766 -16.5790 0.0000 -174.3264 0.2715 -6.3671 2.4464 32.8623 0.0000 24.3270 -12.2720 -5.2014 -17.0300 -12.3426 -5.6099 21.3129 12.3138 -0.0000 34.8323 0.5294 -22.3207 1.3938 33.1476 -0.0000 -26.2537 -6.5943 8.5470 3.6637 10.8672 -0.0000 -0.0000 -14.4545 5.7277 -5.1231 3.4138 -0.0000 -0.0000 -4.8213 -5.1098 -1.0740 6.1920 -0.0000 -0.0000 -14.8902 -10.9986 14.3978 14.7600 -0.0000 -0.0000
-0.9899 36.9633 1.9104 7.4336 -1.3464 0.0548 -5.4288 -7.6943 0.8563 3.7457 1.5697 -1.7729 3.1687 10.7111 16.4684 -30.7873 17.2048 -25.4646 -16.5751 0.0000 -174.2832 0.2699 -6.3477 2.4400 32.8623 0.0000 24.3270 -12.2551 -5.1880 -17.0328 -12.3579 -5.5513 21.2871 12.3026 -0.0000 34.8710 0.5172 -22.3647 1.3591 33.1476 -0.0000 -26.2537 -6.5945 8.5515 3.6715 10.8492 -0.0000 -0.0000 -14.4763 5.7174 -5.1230 3.4664 -0.0000 -0.0000 -4.8327 -5.0921 -1.0624 6.2146 -0.0000 -0.0000 -14.9018 -11.0356 14.3744 14.7307 -0.0000 -0.0000
-0.9889 36.9626 1.9078 7.4307 -1.3217 0.0523 -5.4319 -7.7052 0.8760 3.7235 1.5325 -1.6408 3.1750 10.6902 16.4722 -30.7935 17.2023 -25.4639 -16.5880 0.0000 -174.2632 0.2669 -6.3245 2.4217 32.8623 0.0000 24.3270 -12.2427 -5.1889 -17.0320 -12.3350 -5.4963 21.2874 12.3187 0.0000 34.8028 0.5009 -22.4164 1.3133 33.1476 -0.0000 -26.2537 -6.5916 8.5066 3.6716 10.8595 -0.0000 -0.0000 -14.4353 5.6561 -5.0669 3.2625 -0.0000 -0.0000 -4.8381 -5.0683 -1.0577 6.2289 -0.0000 -0.0000 -14.9221 -11.0933 14.3225 14.7532 -0.0000 -0.0000
-0.9894 36.9620 1.9059 7.4269 -1.3055 0.0428 -5.4332 -7.7202 0.9013 3.7414 1.4628 -1.6344 3.1674 10.6760 16.4787 -30.7801 17.2014 -25.4714 -16.5953 0.0000 -174.2409 0.2615 -6.3265 2.3714 32.8623 0.0000 24.3270 -12.2132 -5.1894 -17.0328 -12.3741 -5.4528 21.3029 12.3285 0.0000 34.7685 0.4766 -22.4280 1.2491 33.1476 -0.0000 -26.2537 -6.5908 8.5412 3.6840 10.8275 -0.0000 -0.0000 -14.4717 5.6676 -5.1196 3.4891 -0.0000 -0.0000 -4.8405 -5.0551 -1.0439 6.2404 -0.0000 -0.0000 -14.9280 -11.1302 14.3084 14.7479 -0.0000 -0.0000
-0.9898 36.9616 1.9040 7.4247 -1.2814 0.0376 -5.4372 -7.7449 0.9224 3.7261 1.4120 -1.5980 3.1645 10.6664 16.4711 -30.7718 17.1861 -25.4701 -16.5977 0.0000 -174.2353 0.2656 -6.3308 2.4077 32.8623 0.0000 24.3270 -12.2012 -5.1821 -17.0343 -12.3714 -5.4105 21.3177 12.3581 0.0000 34.7125 0.4410 -22.4102 1.1567 33.1476 -0.0000 -26.2537 -6.5892 8.5381 3.6875 10.8102 -0.0000 -0.0000 -14.4669 5.6654 -5.1688 3.4615 -0.0000 -0.0000 -4.8448 -5.0500 -1.0348 6.2549 -0.0000 -0.0000 -14.9431 -11.1685 14.2897 14.7753 -0.0000 -0.0000
-0.9910 36.9609 1.9019 7.4208 -1.2599 0.0303 -5.4345 -7.7587 0.9385 3.7079 1.3762 -1.5319 3.1808 10.6854 16.4709 -30.8096 17.1480 -25.5027 -16.5922 -0.0000 -174.2182 0.2597 -6.3389 2.3509 32.8623 0.0000 24.3270 -12.1954 -5.1845 -17.0345 -12.3987 -5.3893 21.3349 12.3980 0.0000 34.6183 0.4437 -22.4137 1.1634 33.1476 -0.0000 -26.2537 -6.5861 8.5273 3.6940 10.8108 -0.0000 -0.0000 -14.4428 5.5721 -5.0610 3.3359 -0.0000 -0.0000 -4.8477 -5.0466 -1.0236 6.2680 -0.0000 -0.0000 -14.9613 -11.1953 14.2469 14.7490 -0.0000 -0.0000
-0.9918 36.9605 1.8998 7.4168 -1.2373 0.0279 -5.4362 -7.7814 0.9483 3.6936 1.3617 -1.4318 3.1815 10.6787 16.4702 -30.7953 17.1433 -25.5220 -16.6164 0.0000 -174.2332 0.2588 -6.3616 2.3348 32.8623 0.0000 24.3270 -12.1906 -5.1741 -17.0243 -12.4296 -5.3681 21.3441 12.4385 -0.0000 34.5718 0.4388 -22.5112 1.1459 33.1476 -0.0000 -26.2537 -6.5842 8.5373 3.6967 10.7889 -0.0000 -0.0000 -14.4650 5.6242 -5.1585 3.4447 -0.0000 -0.0000 -4.8455 -5.0490 -1.0177 6.2697 -0.0000 -0.0000 -14.9697 -11.2221 14.2159 14.7661 -0.0000 -0.0000
-0.9941 36.9595 1.8978 7.4021 -1.2053 0.0198 -5.4267 -7.8180 0.9640 3.7136 1.2908 -1.3823 3.1846 10.6817 16.4635 -30.7931 17.1185 -25.5497 -16.6081 -0.0000 -174.2342 0.2523 -6.3477 2.2807 32.8623 0.0000 24.3270 -12.1830 -5.1515 -17.0227 -12.4478 -5.3644 21.3669 12.5078 -0.0000 34.5190 0.3837 -22.4837 1.0032 33.1476 -0.0000 -26.2537 -6.5712 8.4979 3.7033 10.7900 -0.0000 -0.0000 -14.4434 5.5483 -5.0518 3.3127 -0.0000 -0.0000 -4.8323 -5.0432 -1.0031 6.2849 -0.0000 -0.0000 -14.9588 -11.1655 14.0428 14.5002 -0.0000 -0.0000
-0.9963 36.9592 1.8953 7.3914 -1.1840 0.0147 -5.4168 -7.8305 0.9725 3.7119 1.2297 -1.3569 3.1926 10.6750 16.4598 -30.7616 17.1015 -25.5883 -16.6347 -0.0000 -174.2689 0.2526 -6.3038 2.2994 32.8623 0.0000 24.3270 -12.1891 -5.1509 -17.0089 -12.4851 -5.3597 21.3761 12.5687 -0.0000 34.5191 0.3453 -22.4696 0.9035 33.1476 -0.0000 -26.2537 -6.5608 8.4912 3.7091 10.7646 -0.0000 -0.0000 -14.4694 5.6141 -5.1455 3.4800 -0.0000 -0.0000 -4.8245 -5.0425 -0.9968 6.2822 -0.0000 -0.0000 -14.9898 -11.2798 14.1738 14.7440 -0.0000 -0.0000
-0.9985 36.9586 1.8924 7.3856 -1.1706 0.0126 -5.4140 -7.8274 0.9815 3.7079 1.1736 -1.3299 3.1856 10.6590 16.4523 -30.7226 17.0777 -25.6289 -16.6495 0.0000 -174.3154 0.2507 -6.2755 2.2921 32.8623 0.0000 24.3270 -12.2017 -5.1574 -16.9937 -12.4965 -5.3450 21.3678 12.6304 0.0000 34.5486 0.3459 -22.4971 0.9040 33.1476 -0.0000 -26.2537 -6.5549 8.4747 3.7109 10.7503 -0.0000 -0.0000 -14.4605 5.6274 -5.1564 3.4637 -0.0000 -0.0000 -4.8222 -5.0313 -0.9890 6.2830 -0.0000 -0.0000 -14.9954 -11.3135 14.1607 14.7462 -0.0000 -0.0000
-1.0024 36.9584 1.8902 7.3709 -1.1483 0.0037 -5.3982 -7.8533 0.9929 3.7096 1.1172 -1.3265 3.1793 10.6428 16.4421 -30.6947 17.0941 -25.6548 -16.6903 0.0000 -174.3818 0.2576 -6.2961 2.3473 32.8623 0.0000 24.3270 -12.2125 -5.1559 -16.9890 -12.5439 -5.3289 21.3949 12.6856 -0.0000 34.6112 0.3155 -22.4860 0.8248 33.1476 -0.0000 -26.2537 -6.5447 8.4440 3.7225 10.7473 -0.0000 -0.0000 -14.4680 5.6293 -5.1505 3.5042 -0.0000 -0.0000 -4.8080 -5.0348 -0.9743 6.2860 -0.0000 -0.0000 -15.0006 -11.3230 14.1363 14.7572 -0.0000 -0.0000
-1.0066 36.9578 1.8884 7.3465 -1.1212 -0.0154 -5.3694 -7.8837 1.0154 3.6984 1.0777 -1.2733 3.1680 10.6255 16.4350 -30.6597 17.1105 -25.6926 -16.7249 -0.0000 -174.4277 0.2633 -6.3042 2.3964 32.8623 0.0000 24.3270 -12.2054 -5.1635 -16.9766 -12.5289 -5.2913 21.4211 12.7922 0.0000 34.6643 0.2915 -22.5196 0.7610 33.1476 -0.0000 -26.2537 -6.5261 8.3960 3.7431 10.7583 -0.0000 -0.0000 -14.4498 5.5741 -5.0372 3.3364 -0.0000 -0.0000 -4.7787 -5.0513 -0.9493 6.2781 -0.0000 -0.0000 -14.9984 -11.3448 14.1510 14.7512 -0.0000 -0.0000
-1.0103 36.9572 1.8859 7.3355 -1.1043 -0.0223 -5.3595 -7.8941 1.0239 3.6960 1.0287 -1.2467 3.1817 10.6220 16.4278 -30.6470 17.1166 -25.7480 -16.7643 -0.0000 -174.4886 0.2673 -6.3226 2.4258 32.8623 0.0000 24.3270 -12.2415 -5.1446 -16.9653 -12.4826 -5.2742 21.4299 12.8492 0.0000 34.6704 0.2714 -22.5355 0.7081 33.1476 -0.0000 -26.2537 -6.5184 8.3697 3.7523 10.7537 -0.0000 -0.0000 -14.4520 5.5808 -5.0305 3.3248 -0.0000 -0.0000 -4.7731 -5.0475 -0.9372 6.2891 -0.0000 -0.0000 -15.0117 -11.3657 14.1351 14.7817 -0.0000 -0.0000
-1.0152 36.9569 1.8833 7.3252 -1.0970 -0.0263 -5.3491 -7.9046 1.0266 3.6766 1.0272 -1.1784 3.1725 10.6191 16.4164 -30.6334 17.1240 -25.7893 -16.7939 0.0000 -174.5144 0.2720 -6.3745 2.4485 32.8623 0.0000 24.3270 -12.2538 -5.1430 -16.9545 -12.4812 -5.2329 21.4514 12.8898 -0.0000 34.7059 0.2633 -22.5988 0.6853 33.1476 -0.0000 -26.2537 -6.5147 8.3625 3.7647 10.7410 -0.0000 -0.0000 -14.4730 5.6515 -5.1348 3.4985 -0.0000 -0.0000 -4.7664 -5.0462 -0.9245 6.2924 -0.0000 -0.0000 -15.0149 -11.3672 14.0992 14.7753 -0.0000 -0.0000
-1.0206 36.9560 1.8801 7.3146 -1.0792 -0.0376 -5.3381 -7.9184 1.0407 3.6972 0.9624 -1.2287 3.2012 10.6295 16.3870 -30.6243 17.0859 -25.8351 -16.8013 -0.0000 -174.4967 0.2741 -6.4506 2.4386 32.8623 0.0000 24.3270 -12.2573 -5.1364 -16.9615 -12.4564 -5.1937 21.4861 12.9085 0.0000 34.6724 0.2238 -22.6448 0.5812 33.1476 -0.0000 -26.2537 -6.5143 8.3152 3.7801 10.7613 -0.0000 -0.0000 -14.4565 5.6026 -5.0228 3.3348 -0.0000 -0.0000 -4.7577 -5.0541 -0.9042 6.2938 -0.0000 -0.0000 -15.0156 -11.3832 14.0840 14.7682 -0.0000 -0.0000
-1.0263 36.9554 1.8770 7.3060 -1.0629 -0.0450 -5.3275 -7.9265 1.0424 3.6756 0.9569 -1.1497 3.2044 10.6245 16.3803 -30.6191 17.0840 -25.8893 -16.8096 0.0000 -174.4586 0.2803 -6.4129 2.5083 32.8623 0.0000 24.3270 -12.2636 -5.1397 -16.9649 -12.4061 -5.1383 21.5241 12.9118 -0.0000 34.6271 0.2351 -22.5288 0.6137 33.1476 -0.0000 -26.2537 -6.5163 8.2881 3.7937 10.7690 -0.0000 -0.0000 -14.4588 5.6194 -5.0306 3.3201 -0.0000 -0.0000 -4.7517 -5.0540 -0.8881 6.2966 -0.0000 -0.0000 -15.0307 -11.3980 14.0713 14.7555 -0.0000 -0.0000
-1.0322 36.9550 1.8748 7.2960 -1.0510 -0.0499 -5.3209 -7.9252 1.0386 3.6868 0.9305 -1.1179 3.2109 10.6211 16.3732 -30.6394 17.0871 -25.9452 -16.8119 -0.0000 -174.4386 0.2858 -6.3674 2.5756 32.8623 0.0000 24.3270 -12.2406 -5.1481 -16.9564 -12.3934 -5.1014 21.5379 12.9288 -0.0000 34.5961 0.2418 -22.5266 0.6312 33.1476 -0.0000 -26.2537 -6.5150 8.2744 3.8072 10.7588 -0.0000 -0.0000 -14.4870 5.6883 -5.1305 3.5314 -0.0000 -0.0000 -4.7471 -5.0756 -0.8761 6.3066 -0.0000 -0.0000 -15.0377 -11.3829 14.0551 14.7367 -0.0000 -0.0000
-1.0389 36.9542 1.8713 7.2826 -1.0440 -0.0594 -5.3025 -7.9218 1.0475 3.6905 0.8745 -1.0898 3.2108 10.6024 16.3562 -30.6399 17.1037 -25.9931 -16.8216 -0.0000 -174.4368 0.2818 -6.3550 2.5439 32.8623 0.0000 24.3270 -12.2360 -5.1461 -16.9591 -12.3657 -5.0507 21.5543 12.9022 0.0000 34.5138 0.2047 -22.6061 0.5325 33.1476 -0.0000 -26.2537 -6.5179 8.2536 3.8261 10.7899 -0.0000 -0.0000 -14.4630 5.6295 -5.0298 3.3121 -0.0000 -0.0000 -4.7385 -5.0859 -0.8569 6.3089 -0.0000 -0.0000 -15.0340 -11.3832 14.0657 14.7338 -0.0000 -0.0000
-1.0457 36.9541 1.8679 7.2730 -1.0441 -0.0624 -5.2949 -7.9174 1.0400 3.7114 0.8359 -1.0503 3.2006 10.5945 16.3532 -30.5969 17.1037 -26.0585 -16.8321 0.0000 -174.4122 0.2856 -6.3775 2.5692 32.8623 0.0000 24.3270 -12.2010 -5.1458 -16.9600 -12.3922 -5.0326 21.5846 12.9000 0.0000 34.5146 0.2125 -22.5791 0.5535 33.1476 -0.0000 -26.2537 -6.5230 8.2572 3.8402 10.7933 -0.0000 -0.0000 -14.4935 5.6951 -5.1437 3.4939 -0.0000 -0.0000 -4.7364 -5.0829 -0.8434 6.3181 -0.0000 -0.0000 -15.0470 -11.3814 14.0569 14.7617 -0.0000 -0.0000
